<?xml version="1.0" encoding="utf-8" standalone="no"?>
<!DOCTYPE svg PUBLIC "-//W3C//DTD SVG 1.1//EN"
  "http://www.w3.org/Graphics/SVG/1.1/DTD/svg11.dtd">
<svg xmlns:xlink="http://www.w3.org/1999/xlink" width="460.8pt" height="345.6pt" viewBox="0 0 460.8 345.6" xmlns="http://www.w3.org/2000/svg" version="1.1">
 <metadata>
  <rdf:RDF xmlns:dc="http://purl.org/dc/elements/1.1/" xmlns:cc="http://creativecommons.org/ns#" xmlns:rdf="http://www.w3.org/1999/02/22-rdf-syntax-ns#">
   <cc:Work>
    <dc:type rdf:resource="http://purl.org/dc/dcmitype/StillImage"/>
    <dc:date>2022-10-26T15:23:29.614054</dc:date>
    <dc:format>image/svg+xml</dc:format>
    <dc:creator>
     <cc:Agent>
      <dc:title>Matplotlib v3.5.2, https://matplotlib.org/</dc:title>
     </cc:Agent>
    </dc:creator>
   </cc:Work>
  </rdf:RDF>
 </metadata>
 <defs>
  <style type="text/css">*{stroke-linejoin: round; stroke-linecap: butt}</style>
 </defs>
 <g id="figure_1">
  <g id="patch_1">
   <path d="M 0 345.6 
L 460.8 345.6 
L 460.8 0 
L 0 0 
z
" style="fill: #ffffff"/>
  </g>
  <g id="axes_1">
   <g id="patch_2">
    <path d="M 57.6 307.584 
L 414.72 307.584 
L 414.72 41.472 
L 57.6 41.472 
z
" style="fill: #ffffff"/>
   </g>
   <g id="PathCollection_1">
    <defs>
     <path id="mff988b70c3" d="M 0 3 
C 0.795609 3 1.55874 2.683901 2.12132 2.12132 
C 2.683901 1.55874 3 0.795609 3 0 
C 3 -0.795609 2.683901 -1.55874 2.12132 -2.12132 
C 1.55874 -2.683901 0.795609 -3 0 -3 
C -0.795609 -3 -1.55874 -2.683901 -2.12132 -2.12132 
C -2.683901 -1.55874 -3 -0.795609 -3 0 
C -3 0.795609 -2.683901 1.55874 -2.12132 2.12132 
C -1.55874 2.683901 -0.795609 3 0 3 
z
" style="stroke: #1f77b4"/>
    </defs>
    <g clip-path="url(#pfd1aba1e53)">
     <use xlink:href="#mff988b70c3" x="73.832727" y="53.568" style="fill: #1f77b4; stroke: #1f77b4"/>
     <use xlink:href="#mff988b70c3" x="77.079273" y="53.592192" style="fill: #1f77b4; stroke: #1f77b4"/>
     <use xlink:href="#mff988b70c3" x="80.325818" y="53.664768" style="fill: #1f77b4; stroke: #1f77b4"/>
     <use xlink:href="#mff988b70c3" x="83.572364" y="53.785728" style="fill: #1f77b4; stroke: #1f77b4"/>
     <use xlink:href="#mff988b70c3" x="86.818909" y="53.955072" style="fill: #1f77b4; stroke: #1f77b4"/>
     <use xlink:href="#mff988b70c3" x="90.065455" y="54.1728" style="fill: #1f77b4; stroke: #1f77b4"/>
     <use xlink:href="#mff988b70c3" x="93.312" y="54.438912" style="fill: #1f77b4; stroke: #1f77b4"/>
     <use xlink:href="#mff988b70c3" x="96.558545" y="54.753408" style="fill: #1f77b4; stroke: #1f77b4"/>
     <use xlink:href="#mff988b70c3" x="99.805091" y="55.116288" style="fill: #1f77b4; stroke: #1f77b4"/>
     <use xlink:href="#mff988b70c3" x="103.051636" y="55.527552" style="fill: #1f77b4; stroke: #1f77b4"/>
     <use xlink:href="#mff988b70c3" x="106.298182" y="55.9872" style="fill: #1f77b4; stroke: #1f77b4"/>
     <use xlink:href="#mff988b70c3" x="109.544727" y="56.495232" style="fill: #1f77b4; stroke: #1f77b4"/>
     <use xlink:href="#mff988b70c3" x="112.791273" y="57.051648" style="fill: #1f77b4; stroke: #1f77b4"/>
     <use xlink:href="#mff988b70c3" x="116.037818" y="57.656448" style="fill: #1f77b4; stroke: #1f77b4"/>
     <use xlink:href="#mff988b70c3" x="119.284364" y="58.309632" style="fill: #1f77b4; stroke: #1f77b4"/>
     <use xlink:href="#mff988b70c3" x="122.530909" y="59.0112" style="fill: #1f77b4; stroke: #1f77b4"/>
     <use xlink:href="#mff988b70c3" x="125.777455" y="59.761152" style="fill: #1f77b4; stroke: #1f77b4"/>
     <use xlink:href="#mff988b70c3" x="129.024" y="60.559488" style="fill: #1f77b4; stroke: #1f77b4"/>
     <use xlink:href="#mff988b70c3" x="132.270545" y="61.406208" style="fill: #1f77b4; stroke: #1f77b4"/>
     <use xlink:href="#mff988b70c3" x="135.517091" y="62.301312" style="fill: #1f77b4; stroke: #1f77b4"/>
     <use xlink:href="#mff988b70c3" x="138.763636" y="63.2448" style="fill: #1f77b4; stroke: #1f77b4"/>
     <use xlink:href="#mff988b70c3" x="142.010182" y="64.236672" style="fill: #1f77b4; stroke: #1f77b4"/>
     <use xlink:href="#mff988b70c3" x="145.256727" y="65.276928" style="fill: #1f77b4; stroke: #1f77b4"/>
     <use xlink:href="#mff988b70c3" x="148.503273" y="66.365568" style="fill: #1f77b4; stroke: #1f77b4"/>
     <use xlink:href="#mff988b70c3" x="151.749818" y="67.502592" style="fill: #1f77b4; stroke: #1f77b4"/>
     <use xlink:href="#mff988b70c3" x="154.996364" y="68.688" style="fill: #1f77b4; stroke: #1f77b4"/>
     <use xlink:href="#mff988b70c3" x="158.242909" y="69.921792" style="fill: #1f77b4; stroke: #1f77b4"/>
     <use xlink:href="#mff988b70c3" x="161.489455" y="71.203968" style="fill: #1f77b4; stroke: #1f77b4"/>
     <use xlink:href="#mff988b70c3" x="164.736" y="72.534528" style="fill: #1f77b4; stroke: #1f77b4"/>
     <use xlink:href="#mff988b70c3" x="167.982545" y="73.913472" style="fill: #1f77b4; stroke: #1f77b4"/>
     <use xlink:href="#mff988b70c3" x="171.229091" y="75.3408" style="fill: #1f77b4; stroke: #1f77b4"/>
     <use xlink:href="#mff988b70c3" x="174.475636" y="76.816512" style="fill: #1f77b4; stroke: #1f77b4"/>
     <use xlink:href="#mff988b70c3" x="177.722182" y="78.340608" style="fill: #1f77b4; stroke: #1f77b4"/>
     <use xlink:href="#mff988b70c3" x="180.968727" y="79.913088" style="fill: #1f77b4; stroke: #1f77b4"/>
     <use xlink:href="#mff988b70c3" x="184.215273" y="81.533952" style="fill: #1f77b4; stroke: #1f77b4"/>
     <use xlink:href="#mff988b70c3" x="187.461818" y="83.2032" style="fill: #1f77b4; stroke: #1f77b4"/>
     <use xlink:href="#mff988b70c3" x="190.708364" y="84.920832" style="fill: #1f77b4; stroke: #1f77b4"/>
     <use xlink:href="#mff988b70c3" x="193.954909" y="86.686848" style="fill: #1f77b4; stroke: #1f77b4"/>
     <use xlink:href="#mff988b70c3" x="197.201455" y="88.501248" style="fill: #1f77b4; stroke: #1f77b4"/>
     <use xlink:href="#mff988b70c3" x="200.448" y="90.364032" style="fill: #1f77b4; stroke: #1f77b4"/>
     <use xlink:href="#mff988b70c3" x="203.694545" y="92.2752" style="fill: #1f77b4; stroke: #1f77b4"/>
     <use xlink:href="#mff988b70c3" x="206.941091" y="94.234752" style="fill: #1f77b4; stroke: #1f77b4"/>
     <use xlink:href="#mff988b70c3" x="210.187636" y="96.242688" style="fill: #1f77b4; stroke: #1f77b4"/>
     <use xlink:href="#mff988b70c3" x="213.434182" y="98.299008" style="fill: #1f77b4; stroke: #1f77b4"/>
     <use xlink:href="#mff988b70c3" x="216.680727" y="100.403712" style="fill: #1f77b4; stroke: #1f77b4"/>
     <use xlink:href="#mff988b70c3" x="219.927273" y="102.5568" style="fill: #1f77b4; stroke: #1f77b4"/>
     <use xlink:href="#mff988b70c3" x="223.173818" y="104.758272" style="fill: #1f77b4; stroke: #1f77b4"/>
     <use xlink:href="#mff988b70c3" x="226.420364" y="107.008128" style="fill: #1f77b4; stroke: #1f77b4"/>
     <use xlink:href="#mff988b70c3" x="229.666909" y="109.306368" style="fill: #1f77b4; stroke: #1f77b4"/>
     <use xlink:href="#mff988b70c3" x="232.913455" y="111.652992" style="fill: #1f77b4; stroke: #1f77b4"/>
     <use xlink:href="#mff988b70c3" x="236.16" y="114.048" style="fill: #1f77b4; stroke: #1f77b4"/>
     <use xlink:href="#mff988b70c3" x="239.406545" y="116.491392" style="fill: #1f77b4; stroke: #1f77b4"/>
     <use xlink:href="#mff988b70c3" x="242.653091" y="118.983168" style="fill: #1f77b4; stroke: #1f77b4"/>
     <use xlink:href="#mff988b70c3" x="245.899636" y="121.523328" style="fill: #1f77b4; stroke: #1f77b4"/>
     <use xlink:href="#mff988b70c3" x="249.146182" y="124.111872" style="fill: #1f77b4; stroke: #1f77b4"/>
     <use xlink:href="#mff988b70c3" x="252.392727" y="126.7488" style="fill: #1f77b4; stroke: #1f77b4"/>
     <use xlink:href="#mff988b70c3" x="255.639273" y="129.434112" style="fill: #1f77b4; stroke: #1f77b4"/>
     <use xlink:href="#mff988b70c3" x="258.885818" y="132.167808" style="fill: #1f77b4; stroke: #1f77b4"/>
     <use xlink:href="#mff988b70c3" x="262.132364" y="134.949888" style="fill: #1f77b4; stroke: #1f77b4"/>
     <use xlink:href="#mff988b70c3" x="265.378909" y="137.780352" style="fill: #1f77b4; stroke: #1f77b4"/>
     <use xlink:href="#mff988b70c3" x="268.625455" y="140.6592" style="fill: #1f77b4; stroke: #1f77b4"/>
     <use xlink:href="#mff988b70c3" x="271.872" y="143.586432" style="fill: #1f77b4; stroke: #1f77b4"/>
     <use xlink:href="#mff988b70c3" x="275.118545" y="146.562048" style="fill: #1f77b4; stroke: #1f77b4"/>
     <use xlink:href="#mff988b70c3" x="278.365091" y="149.586048" style="fill: #1f77b4; stroke: #1f77b4"/>
     <use xlink:href="#mff988b70c3" x="281.611636" y="152.658432" style="fill: #1f77b4; stroke: #1f77b4"/>
     <use xlink:href="#mff988b70c3" x="284.858182" y="155.7792" style="fill: #1f77b4; stroke: #1f77b4"/>
     <use xlink:href="#mff988b70c3" x="288.104727" y="158.948352" style="fill: #1f77b4; stroke: #1f77b4"/>
     <use xlink:href="#mff988b70c3" x="291.351273" y="162.165888" style="fill: #1f77b4; stroke: #1f77b4"/>
     <use xlink:href="#mff988b70c3" x="294.597818" y="165.431808" style="fill: #1f77b4; stroke: #1f77b4"/>
     <use xlink:href="#mff988b70c3" x="297.844364" y="168.746112" style="fill: #1f77b4; stroke: #1f77b4"/>
     <use xlink:href="#mff988b70c3" x="301.090909" y="172.1088" style="fill: #1f77b4; stroke: #1f77b4"/>
     <use xlink:href="#mff988b70c3" x="304.337455" y="175.519872" style="fill: #1f77b4; stroke: #1f77b4"/>
     <use xlink:href="#mff988b70c3" x="307.584" y="178.979328" style="fill: #1f77b4; stroke: #1f77b4"/>
     <use xlink:href="#mff988b70c3" x="310.830545" y="182.487168" style="fill: #1f77b4; stroke: #1f77b4"/>
     <use xlink:href="#mff988b70c3" x="314.077091" y="186.043392" style="fill: #1f77b4; stroke: #1f77b4"/>
     <use xlink:href="#mff988b70c3" x="317.323636" y="189.648" style="fill: #1f77b4; stroke: #1f77b4"/>
     <use xlink:href="#mff988b70c3" x="320.570182" y="193.300992" style="fill: #1f77b4; stroke: #1f77b4"/>
     <use xlink:href="#mff988b70c3" x="323.816727" y="197.002368" style="fill: #1f77b4; stroke: #1f77b4"/>
     <use xlink:href="#mff988b70c3" x="327.063273" y="200.752128" style="fill: #1f77b4; stroke: #1f77b4"/>
     <use xlink:href="#mff988b70c3" x="330.309818" y="204.550272" style="fill: #1f77b4; stroke: #1f77b4"/>
     <use xlink:href="#mff988b70c3" x="333.556364" y="208.3968" style="fill: #1f77b4; stroke: #1f77b4"/>
     <use xlink:href="#mff988b70c3" x="336.802909" y="212.291712" style="fill: #1f77b4; stroke: #1f77b4"/>
     <use xlink:href="#mff988b70c3" x="340.049455" y="216.235008" style="fill: #1f77b4; stroke: #1f77b4"/>
     <use xlink:href="#mff988b70c3" x="343.296" y="220.226688" style="fill: #1f77b4; stroke: #1f77b4"/>
     <use xlink:href="#mff988b70c3" x="346.542545" y="224.266752" style="fill: #1f77b4; stroke: #1f77b4"/>
     <use xlink:href="#mff988b70c3" x="349.789091" y="228.3552" style="fill: #1f77b4; stroke: #1f77b4"/>
     <use xlink:href="#mff988b70c3" x="353.035636" y="232.492032" style="fill: #1f77b4; stroke: #1f77b4"/>
     <use xlink:href="#mff988b70c3" x="356.282182" y="236.677248" style="fill: #1f77b4; stroke: #1f77b4"/>
     <use xlink:href="#mff988b70c3" x="359.528727" y="240.910848" style="fill: #1f77b4; stroke: #1f77b4"/>
     <use xlink:href="#mff988b70c3" x="362.775273" y="245.192832" style="fill: #1f77b4; stroke: #1f77b4"/>
     <use xlink:href="#mff988b70c3" x="366.021818" y="249.5232" style="fill: #1f77b4; stroke: #1f77b4"/>
     <use xlink:href="#mff988b70c3" x="369.268364" y="253.901952" style="fill: #1f77b4; stroke: #1f77b4"/>
     <use xlink:href="#mff988b70c3" x="372.514909" y="258.329088" style="fill: #1f77b4; stroke: #1f77b4"/>
     <use xlink:href="#mff988b70c3" x="375.761455" y="262.804608" style="fill: #1f77b4; stroke: #1f77b4"/>
     <use xlink:href="#mff988b70c3" x="379.008" y="267.328512" style="fill: #1f77b4; stroke: #1f77b4"/>
     <use xlink:href="#mff988b70c3" x="382.254545" y="271.9008" style="fill: #1f77b4; stroke: #1f77b4"/>
     <use xlink:href="#mff988b70c3" x="385.501091" y="276.521472" style="fill: #1f77b4; stroke: #1f77b4"/>
     <use xlink:href="#mff988b70c3" x="388.747636" y="281.190528" style="fill: #1f77b4; stroke: #1f77b4"/>
     <use xlink:href="#mff988b70c3" x="391.994182" y="285.907968" style="fill: #1f77b4; stroke: #1f77b4"/>
     <use xlink:href="#mff988b70c3" x="395.240727" y="290.673792" style="fill: #1f77b4; stroke: #1f77b4"/>
     <use xlink:href="#mff988b70c3" x="398.487273" y="295.488" style="fill: #1f77b4; stroke: #1f77b4"/>
    </g>
   </g>
   <g id="matplotlib.axis_1">
    <g id="xtick_1">
     <g id="line2d_1">
      <defs>
       <path id="m7e1a8f6144" d="M 0 0 
L 0 3.5 
" style="stroke: #000000; stroke-width: 0.8"/>
      </defs>
      <g>
       <use xlink:href="#m7e1a8f6144" x="73.832727" y="307.584" style="stroke: #000000; stroke-width: 0.8"/>
      </g>
     </g>
     <g id="text_1">
      <!-- 0.0 -->
      <g transform="translate(65.881165 322.182437)scale(0.1 -0.1)">
       <defs>
        <path id="DejaVuSans-30" d="M 2034 4250 
Q 1547 4250 1301 3770 
Q 1056 3291 1056 2328 
Q 1056 1369 1301 889 
Q 1547 409 2034 409 
Q 2525 409 2770 889 
Q 3016 1369 3016 2328 
Q 3016 3291 2770 3770 
Q 2525 4250 2034 4250 
z
M 2034 4750 
Q 2819 4750 3233 4129 
Q 3647 3509 3647 2328 
Q 3647 1150 3233 529 
Q 2819 -91 2034 -91 
Q 1250 -91 836 529 
Q 422 1150 422 2328 
Q 422 3509 836 4129 
Q 1250 4750 2034 4750 
z
" transform="scale(0.015625)"/>
        <path id="DejaVuSans-2e" d="M 684 794 
L 1344 794 
L 1344 0 
L 684 0 
L 684 794 
z
" transform="scale(0.015625)"/>
       </defs>
       <use xlink:href="#DejaVuSans-30"/>
       <use xlink:href="#DejaVuSans-2e" x="63.623047"/>
       <use xlink:href="#DejaVuSans-30" x="95.410156"/>
      </g>
     </g>
    </g>
    <g id="xtick_2">
     <g id="line2d_2">
      <g>
       <use xlink:href="#m7e1a8f6144" x="138.763636" y="307.584" style="stroke: #000000; stroke-width: 0.8"/>
      </g>
     </g>
     <g id="text_2">
      <!-- 0.2 -->
      <g transform="translate(130.812074 322.182437)scale(0.1 -0.1)">
       <defs>
        <path id="DejaVuSans-32" d="M 1228 531 
L 3431 531 
L 3431 0 
L 469 0 
L 469 531 
Q 828 903 1448 1529 
Q 2069 2156 2228 2338 
Q 2531 2678 2651 2914 
Q 2772 3150 2772 3378 
Q 2772 3750 2511 3984 
Q 2250 4219 1831 4219 
Q 1534 4219 1204 4116 
Q 875 4013 500 3803 
L 500 4441 
Q 881 4594 1212 4672 
Q 1544 4750 1819 4750 
Q 2544 4750 2975 4387 
Q 3406 4025 3406 3419 
Q 3406 3131 3298 2873 
Q 3191 2616 2906 2266 
Q 2828 2175 2409 1742 
Q 1991 1309 1228 531 
z
" transform="scale(0.015625)"/>
       </defs>
       <use xlink:href="#DejaVuSans-30"/>
       <use xlink:href="#DejaVuSans-2e" x="63.623047"/>
       <use xlink:href="#DejaVuSans-32" x="95.410156"/>
      </g>
     </g>
    </g>
    <g id="xtick_3">
     <g id="line2d_3">
      <g>
       <use xlink:href="#m7e1a8f6144" x="203.694545" y="307.584" style="stroke: #000000; stroke-width: 0.8"/>
      </g>
     </g>
     <g id="text_3">
      <!-- 0.4 -->
      <g transform="translate(195.742983 322.182437)scale(0.1 -0.1)">
       <defs>
        <path id="DejaVuSans-34" d="M 2419 4116 
L 825 1625 
L 2419 1625 
L 2419 4116 
z
M 2253 4666 
L 3047 4666 
L 3047 1625 
L 3713 1625 
L 3713 1100 
L 3047 1100 
L 3047 0 
L 2419 0 
L 2419 1100 
L 313 1100 
L 313 1709 
L 2253 4666 
z
" transform="scale(0.015625)"/>
       </defs>
       <use xlink:href="#DejaVuSans-30"/>
       <use xlink:href="#DejaVuSans-2e" x="63.623047"/>
       <use xlink:href="#DejaVuSans-34" x="95.410156"/>
      </g>
     </g>
    </g>
    <g id="xtick_4">
     <g id="line2d_4">
      <g>
       <use xlink:href="#m7e1a8f6144" x="268.625455" y="307.584" style="stroke: #000000; stroke-width: 0.8"/>
      </g>
     </g>
     <g id="text_4">
      <!-- 0.6 -->
      <g transform="translate(260.673892 322.182437)scale(0.1 -0.1)">
       <defs>
        <path id="DejaVuSans-36" d="M 2113 2584 
Q 1688 2584 1439 2293 
Q 1191 2003 1191 1497 
Q 1191 994 1439 701 
Q 1688 409 2113 409 
Q 2538 409 2786 701 
Q 3034 994 3034 1497 
Q 3034 2003 2786 2293 
Q 2538 2584 2113 2584 
z
M 3366 4563 
L 3366 3988 
Q 3128 4100 2886 4159 
Q 2644 4219 2406 4219 
Q 1781 4219 1451 3797 
Q 1122 3375 1075 2522 
Q 1259 2794 1537 2939 
Q 1816 3084 2150 3084 
Q 2853 3084 3261 2657 
Q 3669 2231 3669 1497 
Q 3669 778 3244 343 
Q 2819 -91 2113 -91 
Q 1303 -91 875 529 
Q 447 1150 447 2328 
Q 447 3434 972 4092 
Q 1497 4750 2381 4750 
Q 2619 4750 2861 4703 
Q 3103 4656 3366 4563 
z
" transform="scale(0.015625)"/>
       </defs>
       <use xlink:href="#DejaVuSans-30"/>
       <use xlink:href="#DejaVuSans-2e" x="63.623047"/>
       <use xlink:href="#DejaVuSans-36" x="95.410156"/>
      </g>
     </g>
    </g>
    <g id="xtick_5">
     <g id="line2d_5">
      <g>
       <use xlink:href="#m7e1a8f6144" x="333.556364" y="307.584" style="stroke: #000000; stroke-width: 0.8"/>
      </g>
     </g>
     <g id="text_5">
      <!-- 0.8 -->
      <g transform="translate(325.604801 322.182437)scale(0.1 -0.1)">
       <defs>
        <path id="DejaVuSans-38" d="M 2034 2216 
Q 1584 2216 1326 1975 
Q 1069 1734 1069 1313 
Q 1069 891 1326 650 
Q 1584 409 2034 409 
Q 2484 409 2743 651 
Q 3003 894 3003 1313 
Q 3003 1734 2745 1975 
Q 2488 2216 2034 2216 
z
M 1403 2484 
Q 997 2584 770 2862 
Q 544 3141 544 3541 
Q 544 4100 942 4425 
Q 1341 4750 2034 4750 
Q 2731 4750 3128 4425 
Q 3525 4100 3525 3541 
Q 3525 3141 3298 2862 
Q 3072 2584 2669 2484 
Q 3125 2378 3379 2068 
Q 3634 1759 3634 1313 
Q 3634 634 3220 271 
Q 2806 -91 2034 -91 
Q 1263 -91 848 271 
Q 434 634 434 1313 
Q 434 1759 690 2068 
Q 947 2378 1403 2484 
z
M 1172 3481 
Q 1172 3119 1398 2916 
Q 1625 2713 2034 2713 
Q 2441 2713 2670 2916 
Q 2900 3119 2900 3481 
Q 2900 3844 2670 4047 
Q 2441 4250 2034 4250 
Q 1625 4250 1398 4047 
Q 1172 3844 1172 3481 
z
" transform="scale(0.015625)"/>
       </defs>
       <use xlink:href="#DejaVuSans-30"/>
       <use xlink:href="#DejaVuSans-2e" x="63.623047"/>
       <use xlink:href="#DejaVuSans-38" x="95.410156"/>
      </g>
     </g>
    </g>
    <g id="xtick_6">
     <g id="line2d_6">
      <g>
       <use xlink:href="#m7e1a8f6144" x="398.487273" y="307.584" style="stroke: #000000; stroke-width: 0.8"/>
      </g>
     </g>
     <g id="text_6">
      <!-- 1.0 -->
      <g transform="translate(390.53571 322.182437)scale(0.1 -0.1)">
       <defs>
        <path id="DejaVuSans-31" d="M 794 531 
L 1825 531 
L 1825 4091 
L 703 3866 
L 703 4441 
L 1819 4666 
L 2450 4666 
L 2450 531 
L 3481 531 
L 3481 0 
L 794 0 
L 794 531 
z
" transform="scale(0.015625)"/>
       </defs>
       <use xlink:href="#DejaVuSans-31"/>
       <use xlink:href="#DejaVuSans-2e" x="63.623047"/>
       <use xlink:href="#DejaVuSans-30" x="95.410156"/>
      </g>
     </g>
    </g>
    <g id="text_7">
     <!-- f1 -->
     <g transform="translate(231.218594 335.860562)scale(0.1 -0.1)">
      <defs>
       <path id="DejaVuSans-66" d="M 2375 4863 
L 2375 4384 
L 1825 4384 
Q 1516 4384 1395 4259 
Q 1275 4134 1275 3809 
L 1275 3500 
L 2222 3500 
L 2222 3053 
L 1275 3053 
L 1275 0 
L 697 0 
L 697 3053 
L 147 3053 
L 147 3500 
L 697 3500 
L 697 3744 
Q 697 4328 969 4595 
Q 1241 4863 1831 4863 
L 2375 4863 
z
" transform="scale(0.015625)"/>
      </defs>
      <use xlink:href="#DejaVuSans-66"/>
      <use xlink:href="#DejaVuSans-31" x="35.205078"/>
     </g>
    </g>
   </g>
   <g id="matplotlib.axis_2">
    <g id="ytick_1">
     <g id="line2d_7">
      <defs>
       <path id="m7e64d07e2f" d="M 0 0 
L -3.5 0 
" style="stroke: #000000; stroke-width: 0.8"/>
      </defs>
      <g>
       <use xlink:href="#m7e64d07e2f" x="57.6" y="295.488" style="stroke: #000000; stroke-width: 0.8"/>
      </g>
     </g>
     <g id="text_8">
      <!-- 0.0 -->
      <g transform="translate(34.696875 299.287219)scale(0.1 -0.1)">
       <use xlink:href="#DejaVuSans-30"/>
       <use xlink:href="#DejaVuSans-2e" x="63.623047"/>
       <use xlink:href="#DejaVuSans-30" x="95.410156"/>
      </g>
     </g>
    </g>
    <g id="ytick_2">
     <g id="line2d_8">
      <g>
       <use xlink:href="#m7e64d07e2f" x="57.6" y="247.104" style="stroke: #000000; stroke-width: 0.8"/>
      </g>
     </g>
     <g id="text_9">
      <!-- 0.2 -->
      <g transform="translate(34.696875 250.903219)scale(0.1 -0.1)">
       <use xlink:href="#DejaVuSans-30"/>
       <use xlink:href="#DejaVuSans-2e" x="63.623047"/>
       <use xlink:href="#DejaVuSans-32" x="95.410156"/>
      </g>
     </g>
    </g>
    <g id="ytick_3">
     <g id="line2d_9">
      <g>
       <use xlink:href="#m7e64d07e2f" x="57.6" y="198.72" style="stroke: #000000; stroke-width: 0.8"/>
      </g>
     </g>
     <g id="text_10">
      <!-- 0.4 -->
      <g transform="translate(34.696875 202.519219)scale(0.1 -0.1)">
       <use xlink:href="#DejaVuSans-30"/>
       <use xlink:href="#DejaVuSans-2e" x="63.623047"/>
       <use xlink:href="#DejaVuSans-34" x="95.410156"/>
      </g>
     </g>
    </g>
    <g id="ytick_4">
     <g id="line2d_10">
      <g>
       <use xlink:href="#m7e64d07e2f" x="57.6" y="150.336" style="stroke: #000000; stroke-width: 0.8"/>
      </g>
     </g>
     <g id="text_11">
      <!-- 0.6 -->
      <g transform="translate(34.696875 154.135219)scale(0.1 -0.1)">
       <use xlink:href="#DejaVuSans-30"/>
       <use xlink:href="#DejaVuSans-2e" x="63.623047"/>
       <use xlink:href="#DejaVuSans-36" x="95.410156"/>
      </g>
     </g>
    </g>
    <g id="ytick_5">
     <g id="line2d_11">
      <g>
       <use xlink:href="#m7e64d07e2f" x="57.6" y="101.952" style="stroke: #000000; stroke-width: 0.8"/>
      </g>
     </g>
     <g id="text_12">
      <!-- 0.8 -->
      <g transform="translate(34.696875 105.751219)scale(0.1 -0.1)">
       <use xlink:href="#DejaVuSans-30"/>
       <use xlink:href="#DejaVuSans-2e" x="63.623047"/>
       <use xlink:href="#DejaVuSans-38" x="95.410156"/>
      </g>
     </g>
    </g>
    <g id="ytick_6">
     <g id="line2d_12">
      <g>
       <use xlink:href="#m7e64d07e2f" x="57.6" y="53.568" style="stroke: #000000; stroke-width: 0.8"/>
      </g>
     </g>
     <g id="text_13">
      <!-- 1.0 -->
      <g transform="translate(34.696875 57.367219)scale(0.1 -0.1)">
       <use xlink:href="#DejaVuSans-31"/>
       <use xlink:href="#DejaVuSans-2e" x="63.623047"/>
       <use xlink:href="#DejaVuSans-30" x="95.410156"/>
      </g>
     </g>
    </g>
    <g id="text_14">
     <!-- f2 -->
     <g transform="translate(28.617188 179.469406)rotate(-90)scale(0.1 -0.1)">
      <use xlink:href="#DejaVuSans-66"/>
      <use xlink:href="#DejaVuSans-32" x="35.205078"/>
     </g>
    </g>
   </g>
   <g id="patch_3">
    <path d="M 57.6 307.584 
L 57.6 41.472 
" style="fill: none; stroke: #000000; stroke-width: 0.8; stroke-linejoin: miter; stroke-linecap: square"/>
   </g>
   <g id="patch_4">
    <path d="M 414.72 307.584 
L 414.72 41.472 
" style="fill: none; stroke: #000000; stroke-width: 0.8; stroke-linejoin: miter; stroke-linecap: square"/>
   </g>
   <g id="patch_5">
    <path d="M 57.6 307.584 
L 414.72 307.584 
" style="fill: none; stroke: #000000; stroke-width: 0.8; stroke-linejoin: miter; stroke-linecap: square"/>
   </g>
   <g id="patch_6">
    <path d="M 57.6 41.472 
L 414.72 41.472 
" style="fill: none; stroke: #000000; stroke-width: 0.8; stroke-linejoin: miter; stroke-linecap: square"/>
   </g>
   <g id="text_15">
    <!-- concave -->
    <g transform="translate(211.168125 35.472)scale(0.12 -0.12)">
     <defs>
      <path id="DejaVuSans-63" d="M 3122 3366 
L 3122 2828 
Q 2878 2963 2633 3030 
Q 2388 3097 2138 3097 
Q 1578 3097 1268 2742 
Q 959 2388 959 1747 
Q 959 1106 1268 751 
Q 1578 397 2138 397 
Q 2388 397 2633 464 
Q 2878 531 3122 666 
L 3122 134 
Q 2881 22 2623 -34 
Q 2366 -91 2075 -91 
Q 1284 -91 818 406 
Q 353 903 353 1747 
Q 353 2603 823 3093 
Q 1294 3584 2113 3584 
Q 2378 3584 2631 3529 
Q 2884 3475 3122 3366 
z
" transform="scale(0.015625)"/>
      <path id="DejaVuSans-6f" d="M 1959 3097 
Q 1497 3097 1228 2736 
Q 959 2375 959 1747 
Q 959 1119 1226 758 
Q 1494 397 1959 397 
Q 2419 397 2687 759 
Q 2956 1122 2956 1747 
Q 2956 2369 2687 2733 
Q 2419 3097 1959 3097 
z
M 1959 3584 
Q 2709 3584 3137 3096 
Q 3566 2609 3566 1747 
Q 3566 888 3137 398 
Q 2709 -91 1959 -91 
Q 1206 -91 779 398 
Q 353 888 353 1747 
Q 353 2609 779 3096 
Q 1206 3584 1959 3584 
z
" transform="scale(0.015625)"/>
      <path id="DejaVuSans-6e" d="M 3513 2113 
L 3513 0 
L 2938 0 
L 2938 2094 
Q 2938 2591 2744 2837 
Q 2550 3084 2163 3084 
Q 1697 3084 1428 2787 
Q 1159 2491 1159 1978 
L 1159 0 
L 581 0 
L 581 3500 
L 1159 3500 
L 1159 2956 
Q 1366 3272 1645 3428 
Q 1925 3584 2291 3584 
Q 2894 3584 3203 3211 
Q 3513 2838 3513 2113 
z
" transform="scale(0.015625)"/>
      <path id="DejaVuSans-61" d="M 2194 1759 
Q 1497 1759 1228 1600 
Q 959 1441 959 1056 
Q 959 750 1161 570 
Q 1363 391 1709 391 
Q 2188 391 2477 730 
Q 2766 1069 2766 1631 
L 2766 1759 
L 2194 1759 
z
M 3341 1997 
L 3341 0 
L 2766 0 
L 2766 531 
Q 2569 213 2275 61 
Q 1981 -91 1556 -91 
Q 1019 -91 701 211 
Q 384 513 384 1019 
Q 384 1609 779 1909 
Q 1175 2209 1959 2209 
L 2766 2209 
L 2766 2266 
Q 2766 2663 2505 2880 
Q 2244 3097 1772 3097 
Q 1472 3097 1187 3025 
Q 903 2953 641 2809 
L 641 3341 
Q 956 3463 1253 3523 
Q 1550 3584 1831 3584 
Q 2591 3584 2966 3190 
Q 3341 2797 3341 1997 
z
" transform="scale(0.015625)"/>
      <path id="DejaVuSans-76" d="M 191 3500 
L 800 3500 
L 1894 563 
L 2988 3500 
L 3597 3500 
L 2284 0 
L 1503 0 
L 191 3500 
z
" transform="scale(0.015625)"/>
      <path id="DejaVuSans-65" d="M 3597 1894 
L 3597 1613 
L 953 1613 
Q 991 1019 1311 708 
Q 1631 397 2203 397 
Q 2534 397 2845 478 
Q 3156 559 3463 722 
L 3463 178 
Q 3153 47 2828 -22 
Q 2503 -91 2169 -91 
Q 1331 -91 842 396 
Q 353 884 353 1716 
Q 353 2575 817 3079 
Q 1281 3584 2069 3584 
Q 2775 3584 3186 3129 
Q 3597 2675 3597 1894 
z
M 3022 2063 
Q 3016 2534 2758 2815 
Q 2500 3097 2075 3097 
Q 1594 3097 1305 2825 
Q 1016 2553 972 2059 
L 3022 2063 
z
" transform="scale(0.015625)"/>
     </defs>
     <use xlink:href="#DejaVuSans-63"/>
     <use xlink:href="#DejaVuSans-6f" x="54.980469"/>
     <use xlink:href="#DejaVuSans-6e" x="116.162109"/>
     <use xlink:href="#DejaVuSans-63" x="179.541016"/>
     <use xlink:href="#DejaVuSans-61" x="234.521484"/>
     <use xlink:href="#DejaVuSans-76" x="295.800781"/>
     <use xlink:href="#DejaVuSans-65" x="354.980469"/>
    </g>
   </g>
  </g>
 </g>
 <defs>
  <clipPath id="pfd1aba1e53">
   <rect x="57.6" y="41.472" width="357.12" height="266.112"/>
  </clipPath>
 </defs>
</svg>
