<?xml version="1.0" encoding="utf-8" standalone="no"?>
<!DOCTYPE svg PUBLIC "-//W3C//DTD SVG 1.1//EN"
  "http://www.w3.org/Graphics/SVG/1.1/DTD/svg11.dtd">
<svg xmlns:xlink="http://www.w3.org/1999/xlink" width="460.8pt" height="345.6pt" viewBox="0 0 460.8 345.6" xmlns="http://www.w3.org/2000/svg" version="1.1">
 <metadata>
  <rdf:RDF xmlns:dc="http://purl.org/dc/elements/1.1/" xmlns:cc="http://creativecommons.org/ns#" xmlns:rdf="http://www.w3.org/1999/02/22-rdf-syntax-ns#">
   <cc:Work>
    <dc:type rdf:resource="http://purl.org/dc/dcmitype/StillImage"/>
    <dc:date>2022-10-26T15:22:24.732932</dc:date>
    <dc:format>image/svg+xml</dc:format>
    <dc:creator>
     <cc:Agent>
      <dc:title>Matplotlib v3.5.2, https://matplotlib.org/</dc:title>
     </cc:Agent>
    </dc:creator>
   </cc:Work>
  </rdf:RDF>
 </metadata>
 <defs>
  <style type="text/css">*{stroke-linejoin: round; stroke-linecap: butt}</style>
 </defs>
 <g id="figure_1">
  <g id="patch_1">
   <path d="M 0 345.6 
L 460.8 345.6 
L 460.8 0 
L 0 0 
z
" style="fill: #ffffff"/>
  </g>
  <g id="axes_1">
   <g id="patch_2">
    <path d="M 57.6 307.584 
L 414.72 307.584 
L 414.72 41.472 
L 57.6 41.472 
z
" style="fill: #ffffff"/>
   </g>
   <g id="PathCollection_1">
    <defs>
     <path id="m784a1dea78" d="M 0 3 
C 0.795609 3 1.55874 2.683901 2.12132 2.12132 
C 2.683901 1.55874 3 0.795609 3 0 
C 3 -0.795609 2.683901 -1.55874 2.12132 -2.12132 
C 1.55874 -2.683901 0.795609 -3 0 -3 
C -0.795609 -3 -1.55874 -2.683901 -2.12132 -2.12132 
C -2.683901 -1.55874 -3 -0.795609 -3 0 
C -3 0.795609 -2.683901 1.55874 -2.12132 2.12132 
C -1.55874 2.683901 -0.795609 3 0 3 
z
" style="stroke: #1f77b4"/>
    </defs>
    <g clip-path="url(#p1381fe9dc7)">
     <use xlink:href="#m784a1dea78" x="73.832727" y="53.568" style="fill: #1f77b4; stroke: #1f77b4"/>
     <use xlink:href="#m784a1dea78" x="77.079273" y="77.76" style="fill: #1f77b4; stroke: #1f77b4"/>
     <use xlink:href="#m784a1dea78" x="80.325818" y="87.780655" style="fill: #1f77b4; stroke: #1f77b4"/>
     <use xlink:href="#m784a1dea78" x="83.572364" y="95.469773" style="fill: #1f77b4; stroke: #1f77b4"/>
     <use xlink:href="#m784a1dea78" x="86.818909" y="101.952" style="fill: #1f77b4; stroke: #1f77b4"/>
     <use xlink:href="#m784a1dea78" x="90.065455" y="107.662957" style="fill: #1f77b4; stroke: #1f77b4"/>
     <use xlink:href="#m784a1dea78" x="93.312" y="112.826056" style="fill: #1f77b4; stroke: #1f77b4"/>
     <use xlink:href="#m784a1dea78" x="96.558545" y="117.574016" style="fill: #1f77b4; stroke: #1f77b4"/>
     <use xlink:href="#m784a1dea78" x="99.805091" y="121.993309" style="fill: #1f77b4; stroke: #1f77b4"/>
     <use xlink:href="#m784a1dea78" x="103.051636" y="126.144" style="fill: #1f77b4; stroke: #1f77b4"/>
     <use xlink:href="#m784a1dea78" x="106.298182" y="130.069821" style="fill: #1f77b4; stroke: #1f77b4"/>
     <use xlink:href="#m784a1dea78" x="109.544727" y="133.803787" style="fill: #1f77b4; stroke: #1f77b4"/>
     <use xlink:href="#m784a1dea78" x="112.791273" y="137.371546" style="fill: #1f77b4; stroke: #1f77b4"/>
     <use xlink:href="#m784a1dea78" x="116.037818" y="140.793496" style="fill: #1f77b4; stroke: #1f77b4"/>
     <use xlink:href="#m784a1dea78" x="119.284364" y="144.086176" style="fill: #1f77b4; stroke: #1f77b4"/>
     <use xlink:href="#m784a1dea78" x="122.530909" y="147.263213" style="fill: #1f77b4; stroke: #1f77b4"/>
     <use xlink:href="#m784a1dea78" x="125.777455" y="150.336" style="fill: #1f77b4; stroke: #1f77b4"/>
     <use xlink:href="#m784a1dea78" x="129.024" y="153.314171" style="fill: #1f77b4; stroke: #1f77b4"/>
     <use xlink:href="#m784a1dea78" x="132.270545" y="156.205964" style="fill: #1f77b4; stroke: #1f77b4"/>
     <use xlink:href="#m784a1dea78" x="135.517091" y="159.018483" style="fill: #1f77b4; stroke: #1f77b4"/>
     <use xlink:href="#m784a1dea78" x="138.763636" y="161.757913" style="fill: #1f77b4; stroke: #1f77b4"/>
     <use xlink:href="#m784a1dea78" x="142.010182" y="164.429671" style="fill: #1f77b4; stroke: #1f77b4"/>
     <use xlink:href="#m784a1dea78" x="145.256727" y="167.038538" style="fill: #1f77b4; stroke: #1f77b4"/>
     <use xlink:href="#m784a1dea78" x="148.503273" y="169.588756" style="fill: #1f77b4; stroke: #1f77b4"/>
     <use xlink:href="#m784a1dea78" x="151.749818" y="172.084112" style="fill: #1f77b4; stroke: #1f77b4"/>
     <use xlink:href="#m784a1dea78" x="154.996364" y="174.528" style="fill: #1f77b4; stroke: #1f77b4"/>
     <use xlink:href="#m784a1dea78" x="158.242909" y="176.92348" style="fill: #1f77b4; stroke: #1f77b4"/>
     <use xlink:href="#m784a1dea78" x="161.489455" y="179.273319" style="fill: #1f77b4; stroke: #1f77b4"/>
     <use xlink:href="#m784a1dea78" x="164.736" y="181.580031" style="fill: #1f77b4; stroke: #1f77b4"/>
     <use xlink:href="#m784a1dea78" x="167.982545" y="183.845907" style="fill: #1f77b4; stroke: #1f77b4"/>
     <use xlink:href="#m784a1dea78" x="171.229091" y="186.073041" style="fill: #1f77b4; stroke: #1f77b4"/>
     <use xlink:href="#m784a1dea78" x="174.475636" y="188.263355" style="fill: #1f77b4; stroke: #1f77b4"/>
     <use xlink:href="#m784a1dea78" x="177.722182" y="190.418618" style="fill: #1f77b4; stroke: #1f77b4"/>
     <use xlink:href="#m784a1dea78" x="180.968727" y="192.54046" style="fill: #1f77b4; stroke: #1f77b4"/>
     <use xlink:href="#m784a1dea78" x="184.215273" y="194.630388" style="fill: #1f77b4; stroke: #1f77b4"/>
     <use xlink:href="#m784a1dea78" x="187.461818" y="196.689802" style="fill: #1f77b4; stroke: #1f77b4"/>
     <use xlink:href="#m784a1dea78" x="190.708364" y="198.72" style="fill: #1f77b4; stroke: #1f77b4"/>
     <use xlink:href="#m784a1dea78" x="193.954909" y="200.722191" style="fill: #1f77b4; stroke: #1f77b4"/>
     <use xlink:href="#m784a1dea78" x="197.201455" y="202.697504" style="fill: #1f77b4; stroke: #1f77b4"/>
     <use xlink:href="#m784a1dea78" x="200.448" y="204.646992" style="fill: #1f77b4; stroke: #1f77b4"/>
     <use xlink:href="#m784a1dea78" x="203.694545" y="206.571642" style="fill: #1f77b4; stroke: #1f77b4"/>
     <use xlink:href="#m784a1dea78" x="206.941091" y="208.472382" style="fill: #1f77b4; stroke: #1f77b4"/>
     <use xlink:href="#m784a1dea78" x="210.187636" y="210.350079" style="fill: #1f77b4; stroke: #1f77b4"/>
     <use xlink:href="#m784a1dea78" x="213.434182" y="212.205553" style="fill: #1f77b4; stroke: #1f77b4"/>
     <use xlink:href="#m784a1dea78" x="216.680727" y="214.039574" style="fill: #1f77b4; stroke: #1f77b4"/>
     <use xlink:href="#m784a1dea78" x="219.927273" y="215.85287" style="fill: #1f77b4; stroke: #1f77b4"/>
     <use xlink:href="#m784a1dea78" x="223.173818" y="217.646127" style="fill: #1f77b4; stroke: #1f77b4"/>
     <use xlink:href="#m784a1dea78" x="226.420364" y="219.419996" style="fill: #1f77b4; stroke: #1f77b4"/>
     <use xlink:href="#m784a1dea78" x="229.666909" y="221.175093" style="fill: #1f77b4; stroke: #1f77b4"/>
     <use xlink:href="#m784a1dea78" x="232.913455" y="222.912" style="fill: #1f77b4; stroke: #1f77b4"/>
     <use xlink:href="#m784a1dea78" x="236.16" y="224.631273" style="fill: #1f77b4; stroke: #1f77b4"/>
     <use xlink:href="#m784a1dea78" x="239.406545" y="226.333437" style="fill: #1f77b4; stroke: #1f77b4"/>
     <use xlink:href="#m784a1dea78" x="242.653091" y="228.018993" style="fill: #1f77b4; stroke: #1f77b4"/>
     <use xlink:href="#m784a1dea78" x="245.899636" y="229.688418" style="fill: #1f77b4; stroke: #1f77b4"/>
     <use xlink:href="#m784a1dea78" x="249.146182" y="231.342168" style="fill: #1f77b4; stroke: #1f77b4"/>
     <use xlink:href="#m784a1dea78" x="252.392727" y="232.980674" style="fill: #1f77b4; stroke: #1f77b4"/>
     <use xlink:href="#m784a1dea78" x="255.639273" y="234.604351" style="fill: #1f77b4; stroke: #1f77b4"/>
     <use xlink:href="#m784a1dea78" x="258.885818" y="236.213595" style="fill: #1f77b4; stroke: #1f77b4"/>
     <use xlink:href="#m784a1dea78" x="262.132364" y="237.808783" style="fill: #1f77b4; stroke: #1f77b4"/>
     <use xlink:href="#m784a1dea78" x="265.378909" y="239.390278" style="fill: #1f77b4; stroke: #1f77b4"/>
     <use xlink:href="#m784a1dea78" x="268.625455" y="240.958426" style="fill: #1f77b4; stroke: #1f77b4"/>
     <use xlink:href="#m784a1dea78" x="271.872" y="242.51356" style="fill: #1f77b4; stroke: #1f77b4"/>
     <use xlink:href="#m784a1dea78" x="275.118545" y="244.055998" style="fill: #1f77b4; stroke: #1f77b4"/>
     <use xlink:href="#m784a1dea78" x="278.365091" y="245.586047" style="fill: #1f77b4; stroke: #1f77b4"/>
     <use xlink:href="#m784a1dea78" x="281.611636" y="247.104" style="fill: #1f77b4; stroke: #1f77b4"/>
     <use xlink:href="#m784a1dea78" x="284.858182" y="248.610139" style="fill: #1f77b4; stroke: #1f77b4"/>
     <use xlink:href="#m784a1dea78" x="288.104727" y="250.104737" style="fill: #1f77b4; stroke: #1f77b4"/>
     <use xlink:href="#m784a1dea78" x="291.351273" y="251.588054" style="fill: #1f77b4; stroke: #1f77b4"/>
     <use xlink:href="#m784a1dea78" x="294.597818" y="253.060343" style="fill: #1f77b4; stroke: #1f77b4"/>
     <use xlink:href="#m784a1dea78" x="297.844364" y="254.521844" style="fill: #1f77b4; stroke: #1f77b4"/>
     <use xlink:href="#m784a1dea78" x="301.090909" y="255.972794" style="fill: #1f77b4; stroke: #1f77b4"/>
     <use xlink:href="#m784a1dea78" x="304.337455" y="257.413415" style="fill: #1f77b4; stroke: #1f77b4"/>
     <use xlink:href="#m784a1dea78" x="307.584" y="258.843927" style="fill: #1f77b4; stroke: #1f77b4"/>
     <use xlink:href="#m784a1dea78" x="310.830545" y="260.264539" style="fill: #1f77b4; stroke: #1f77b4"/>
     <use xlink:href="#m784a1dea78" x="314.077091" y="261.675453" style="fill: #1f77b4; stroke: #1f77b4"/>
     <use xlink:href="#m784a1dea78" x="317.323636" y="263.076866" style="fill: #1f77b4; stroke: #1f77b4"/>
     <use xlink:href="#m784a1dea78" x="320.570182" y="264.468966" style="fill: #1f77b4; stroke: #1f77b4"/>
     <use xlink:href="#m784a1dea78" x="323.816727" y="265.851938" style="fill: #1f77b4; stroke: #1f77b4"/>
     <use xlink:href="#m784a1dea78" x="327.063273" y="267.225959" style="fill: #1f77b4; stroke: #1f77b4"/>
     <use xlink:href="#m784a1dea78" x="330.309818" y="268.591199" style="fill: #1f77b4; stroke: #1f77b4"/>
     <use xlink:href="#m784a1dea78" x="333.556364" y="269.947826" style="fill: #1f77b4; stroke: #1f77b4"/>
     <use xlink:href="#m784a1dea78" x="336.802909" y="271.296" style="fill: #1f77b4; stroke: #1f77b4"/>
     <use xlink:href="#m784a1dea78" x="340.049455" y="272.635877" style="fill: #1f77b4; stroke: #1f77b4"/>
     <use xlink:href="#m784a1dea78" x="343.296" y="273.967609" style="fill: #1f77b4; stroke: #1f77b4"/>
     <use xlink:href="#m784a1dea78" x="346.542545" y="275.291342" style="fill: #1f77b4; stroke: #1f77b4"/>
     <use xlink:href="#m784a1dea78" x="349.789091" y="276.60722" style="fill: #1f77b4; stroke: #1f77b4"/>
     <use xlink:href="#m784a1dea78" x="353.035636" y="277.915379" style="fill: #1f77b4; stroke: #1f77b4"/>
     <use xlink:href="#m784a1dea78" x="356.282182" y="279.215954" style="fill: #1f77b4; stroke: #1f77b4"/>
     <use xlink:href="#m784a1dea78" x="359.528727" y="280.509076" style="fill: #1f77b4; stroke: #1f77b4"/>
     <use xlink:href="#m784a1dea78" x="362.775273" y="281.794872" style="fill: #1f77b4; stroke: #1f77b4"/>
     <use xlink:href="#m784a1dea78" x="366.021818" y="283.073463" style="fill: #1f77b4; stroke: #1f77b4"/>
     <use xlink:href="#m784a1dea78" x="369.268364" y="284.344972" style="fill: #1f77b4; stroke: #1f77b4"/>
     <use xlink:href="#m784a1dea78" x="372.514909" y="285.609512" style="fill: #1f77b4; stroke: #1f77b4"/>
     <use xlink:href="#m784a1dea78" x="375.761455" y="286.867199" style="fill: #1f77b4; stroke: #1f77b4"/>
     <use xlink:href="#m784a1dea78" x="379.008" y="288.118142" style="fill: #1f77b4; stroke: #1f77b4"/>
     <use xlink:href="#m784a1dea78" x="382.254545" y="289.362449" style="fill: #1f77b4; stroke: #1f77b4"/>
     <use xlink:href="#m784a1dea78" x="385.501091" y="290.600223" style="fill: #1f77b4; stroke: #1f77b4"/>
     <use xlink:href="#m784a1dea78" x="388.747636" y="291.831568" style="fill: #1f77b4; stroke: #1f77b4"/>
     <use xlink:href="#m784a1dea78" x="391.994182" y="293.056582" style="fill: #1f77b4; stroke: #1f77b4"/>
     <use xlink:href="#m784a1dea78" x="395.240727" y="294.275361" style="fill: #1f77b4; stroke: #1f77b4"/>
     <use xlink:href="#m784a1dea78" x="398.487273" y="295.488" style="fill: #1f77b4; stroke: #1f77b4"/>
    </g>
   </g>
   <g id="matplotlib.axis_1">
    <g id="xtick_1">
     <g id="line2d_1">
      <defs>
       <path id="m89e8f66e27" d="M 0 0 
L 0 3.5 
" style="stroke: #000000; stroke-width: 0.8"/>
      </defs>
      <g>
       <use xlink:href="#m89e8f66e27" x="73.832727" y="307.584" style="stroke: #000000; stroke-width: 0.8"/>
      </g>
     </g>
     <g id="text_1">
      <!-- 0.0 -->
      <g transform="translate(65.881165 322.182437)scale(0.1 -0.1)">
       <defs>
        <path id="DejaVuSans-30" d="M 2034 4250 
Q 1547 4250 1301 3770 
Q 1056 3291 1056 2328 
Q 1056 1369 1301 889 
Q 1547 409 2034 409 
Q 2525 409 2770 889 
Q 3016 1369 3016 2328 
Q 3016 3291 2770 3770 
Q 2525 4250 2034 4250 
z
M 2034 4750 
Q 2819 4750 3233 4129 
Q 3647 3509 3647 2328 
Q 3647 1150 3233 529 
Q 2819 -91 2034 -91 
Q 1250 -91 836 529 
Q 422 1150 422 2328 
Q 422 3509 836 4129 
Q 1250 4750 2034 4750 
z
" transform="scale(0.015625)"/>
        <path id="DejaVuSans-2e" d="M 684 794 
L 1344 794 
L 1344 0 
L 684 0 
L 684 794 
z
" transform="scale(0.015625)"/>
       </defs>
       <use xlink:href="#DejaVuSans-30"/>
       <use xlink:href="#DejaVuSans-2e" x="63.623047"/>
       <use xlink:href="#DejaVuSans-30" x="95.410156"/>
      </g>
     </g>
    </g>
    <g id="xtick_2">
     <g id="line2d_2">
      <g>
       <use xlink:href="#m89e8f66e27" x="138.763636" y="307.584" style="stroke: #000000; stroke-width: 0.8"/>
      </g>
     </g>
     <g id="text_2">
      <!-- 0.2 -->
      <g transform="translate(130.812074 322.182437)scale(0.1 -0.1)">
       <defs>
        <path id="DejaVuSans-32" d="M 1228 531 
L 3431 531 
L 3431 0 
L 469 0 
L 469 531 
Q 828 903 1448 1529 
Q 2069 2156 2228 2338 
Q 2531 2678 2651 2914 
Q 2772 3150 2772 3378 
Q 2772 3750 2511 3984 
Q 2250 4219 1831 4219 
Q 1534 4219 1204 4116 
Q 875 4013 500 3803 
L 500 4441 
Q 881 4594 1212 4672 
Q 1544 4750 1819 4750 
Q 2544 4750 2975 4387 
Q 3406 4025 3406 3419 
Q 3406 3131 3298 2873 
Q 3191 2616 2906 2266 
Q 2828 2175 2409 1742 
Q 1991 1309 1228 531 
z
" transform="scale(0.015625)"/>
       </defs>
       <use xlink:href="#DejaVuSans-30"/>
       <use xlink:href="#DejaVuSans-2e" x="63.623047"/>
       <use xlink:href="#DejaVuSans-32" x="95.410156"/>
      </g>
     </g>
    </g>
    <g id="xtick_3">
     <g id="line2d_3">
      <g>
       <use xlink:href="#m89e8f66e27" x="203.694545" y="307.584" style="stroke: #000000; stroke-width: 0.8"/>
      </g>
     </g>
     <g id="text_3">
      <!-- 0.4 -->
      <g transform="translate(195.742983 322.182437)scale(0.1 -0.1)">
       <defs>
        <path id="DejaVuSans-34" d="M 2419 4116 
L 825 1625 
L 2419 1625 
L 2419 4116 
z
M 2253 4666 
L 3047 4666 
L 3047 1625 
L 3713 1625 
L 3713 1100 
L 3047 1100 
L 3047 0 
L 2419 0 
L 2419 1100 
L 313 1100 
L 313 1709 
L 2253 4666 
z
" transform="scale(0.015625)"/>
       </defs>
       <use xlink:href="#DejaVuSans-30"/>
       <use xlink:href="#DejaVuSans-2e" x="63.623047"/>
       <use xlink:href="#DejaVuSans-34" x="95.410156"/>
      </g>
     </g>
    </g>
    <g id="xtick_4">
     <g id="line2d_4">
      <g>
       <use xlink:href="#m89e8f66e27" x="268.625455" y="307.584" style="stroke: #000000; stroke-width: 0.8"/>
      </g>
     </g>
     <g id="text_4">
      <!-- 0.6 -->
      <g transform="translate(260.673892 322.182437)scale(0.1 -0.1)">
       <defs>
        <path id="DejaVuSans-36" d="M 2113 2584 
Q 1688 2584 1439 2293 
Q 1191 2003 1191 1497 
Q 1191 994 1439 701 
Q 1688 409 2113 409 
Q 2538 409 2786 701 
Q 3034 994 3034 1497 
Q 3034 2003 2786 2293 
Q 2538 2584 2113 2584 
z
M 3366 4563 
L 3366 3988 
Q 3128 4100 2886 4159 
Q 2644 4219 2406 4219 
Q 1781 4219 1451 3797 
Q 1122 3375 1075 2522 
Q 1259 2794 1537 2939 
Q 1816 3084 2150 3084 
Q 2853 3084 3261 2657 
Q 3669 2231 3669 1497 
Q 3669 778 3244 343 
Q 2819 -91 2113 -91 
Q 1303 -91 875 529 
Q 447 1150 447 2328 
Q 447 3434 972 4092 
Q 1497 4750 2381 4750 
Q 2619 4750 2861 4703 
Q 3103 4656 3366 4563 
z
" transform="scale(0.015625)"/>
       </defs>
       <use xlink:href="#DejaVuSans-30"/>
       <use xlink:href="#DejaVuSans-2e" x="63.623047"/>
       <use xlink:href="#DejaVuSans-36" x="95.410156"/>
      </g>
     </g>
    </g>
    <g id="xtick_5">
     <g id="line2d_5">
      <g>
       <use xlink:href="#m89e8f66e27" x="333.556364" y="307.584" style="stroke: #000000; stroke-width: 0.8"/>
      </g>
     </g>
     <g id="text_5">
      <!-- 0.8 -->
      <g transform="translate(325.604801 322.182437)scale(0.1 -0.1)">
       <defs>
        <path id="DejaVuSans-38" d="M 2034 2216 
Q 1584 2216 1326 1975 
Q 1069 1734 1069 1313 
Q 1069 891 1326 650 
Q 1584 409 2034 409 
Q 2484 409 2743 651 
Q 3003 894 3003 1313 
Q 3003 1734 2745 1975 
Q 2488 2216 2034 2216 
z
M 1403 2484 
Q 997 2584 770 2862 
Q 544 3141 544 3541 
Q 544 4100 942 4425 
Q 1341 4750 2034 4750 
Q 2731 4750 3128 4425 
Q 3525 4100 3525 3541 
Q 3525 3141 3298 2862 
Q 3072 2584 2669 2484 
Q 3125 2378 3379 2068 
Q 3634 1759 3634 1313 
Q 3634 634 3220 271 
Q 2806 -91 2034 -91 
Q 1263 -91 848 271 
Q 434 634 434 1313 
Q 434 1759 690 2068 
Q 947 2378 1403 2484 
z
M 1172 3481 
Q 1172 3119 1398 2916 
Q 1625 2713 2034 2713 
Q 2441 2713 2670 2916 
Q 2900 3119 2900 3481 
Q 2900 3844 2670 4047 
Q 2441 4250 2034 4250 
Q 1625 4250 1398 4047 
Q 1172 3844 1172 3481 
z
" transform="scale(0.015625)"/>
       </defs>
       <use xlink:href="#DejaVuSans-30"/>
       <use xlink:href="#DejaVuSans-2e" x="63.623047"/>
       <use xlink:href="#DejaVuSans-38" x="95.410156"/>
      </g>
     </g>
    </g>
    <g id="xtick_6">
     <g id="line2d_6">
      <g>
       <use xlink:href="#m89e8f66e27" x="398.487273" y="307.584" style="stroke: #000000; stroke-width: 0.8"/>
      </g>
     </g>
     <g id="text_6">
      <!-- 1.0 -->
      <g transform="translate(390.53571 322.182437)scale(0.1 -0.1)">
       <defs>
        <path id="DejaVuSans-31" d="M 794 531 
L 1825 531 
L 1825 4091 
L 703 3866 
L 703 4441 
L 1819 4666 
L 2450 4666 
L 2450 531 
L 3481 531 
L 3481 0 
L 794 0 
L 794 531 
z
" transform="scale(0.015625)"/>
       </defs>
       <use xlink:href="#DejaVuSans-31"/>
       <use xlink:href="#DejaVuSans-2e" x="63.623047"/>
       <use xlink:href="#DejaVuSans-30" x="95.410156"/>
      </g>
     </g>
    </g>
    <g id="text_7">
     <!-- f1 -->
     <g transform="translate(231.218594 335.860562)scale(0.1 -0.1)">
      <defs>
       <path id="DejaVuSans-66" d="M 2375 4863 
L 2375 4384 
L 1825 4384 
Q 1516 4384 1395 4259 
Q 1275 4134 1275 3809 
L 1275 3500 
L 2222 3500 
L 2222 3053 
L 1275 3053 
L 1275 0 
L 697 0 
L 697 3053 
L 147 3053 
L 147 3500 
L 697 3500 
L 697 3744 
Q 697 4328 969 4595 
Q 1241 4863 1831 4863 
L 2375 4863 
z
" transform="scale(0.015625)"/>
      </defs>
      <use xlink:href="#DejaVuSans-66"/>
      <use xlink:href="#DejaVuSans-31" x="35.205078"/>
     </g>
    </g>
   </g>
   <g id="matplotlib.axis_2">
    <g id="ytick_1">
     <g id="line2d_7">
      <defs>
       <path id="m449b27c067" d="M 0 0 
L -3.5 0 
" style="stroke: #000000; stroke-width: 0.8"/>
      </defs>
      <g>
       <use xlink:href="#m449b27c067" x="57.6" y="295.488" style="stroke: #000000; stroke-width: 0.8"/>
      </g>
     </g>
     <g id="text_8">
      <!-- 0.0 -->
      <g transform="translate(34.696875 299.287219)scale(0.1 -0.1)">
       <use xlink:href="#DejaVuSans-30"/>
       <use xlink:href="#DejaVuSans-2e" x="63.623047"/>
       <use xlink:href="#DejaVuSans-30" x="95.410156"/>
      </g>
     </g>
    </g>
    <g id="ytick_2">
     <g id="line2d_8">
      <g>
       <use xlink:href="#m449b27c067" x="57.6" y="247.104" style="stroke: #000000; stroke-width: 0.8"/>
      </g>
     </g>
     <g id="text_9">
      <!-- 0.2 -->
      <g transform="translate(34.696875 250.903219)scale(0.1 -0.1)">
       <use xlink:href="#DejaVuSans-30"/>
       <use xlink:href="#DejaVuSans-2e" x="63.623047"/>
       <use xlink:href="#DejaVuSans-32" x="95.410156"/>
      </g>
     </g>
    </g>
    <g id="ytick_3">
     <g id="line2d_9">
      <g>
       <use xlink:href="#m449b27c067" x="57.6" y="198.72" style="stroke: #000000; stroke-width: 0.8"/>
      </g>
     </g>
     <g id="text_10">
      <!-- 0.4 -->
      <g transform="translate(34.696875 202.519219)scale(0.1 -0.1)">
       <use xlink:href="#DejaVuSans-30"/>
       <use xlink:href="#DejaVuSans-2e" x="63.623047"/>
       <use xlink:href="#DejaVuSans-34" x="95.410156"/>
      </g>
     </g>
    </g>
    <g id="ytick_4">
     <g id="line2d_10">
      <g>
       <use xlink:href="#m449b27c067" x="57.6" y="150.336" style="stroke: #000000; stroke-width: 0.8"/>
      </g>
     </g>
     <g id="text_11">
      <!-- 0.6 -->
      <g transform="translate(34.696875 154.135219)scale(0.1 -0.1)">
       <use xlink:href="#DejaVuSans-30"/>
       <use xlink:href="#DejaVuSans-2e" x="63.623047"/>
       <use xlink:href="#DejaVuSans-36" x="95.410156"/>
      </g>
     </g>
    </g>
    <g id="ytick_5">
     <g id="line2d_11">
      <g>
       <use xlink:href="#m449b27c067" x="57.6" y="101.952" style="stroke: #000000; stroke-width: 0.8"/>
      </g>
     </g>
     <g id="text_12">
      <!-- 0.8 -->
      <g transform="translate(34.696875 105.751219)scale(0.1 -0.1)">
       <use xlink:href="#DejaVuSans-30"/>
       <use xlink:href="#DejaVuSans-2e" x="63.623047"/>
       <use xlink:href="#DejaVuSans-38" x="95.410156"/>
      </g>
     </g>
    </g>
    <g id="ytick_6">
     <g id="line2d_12">
      <g>
       <use xlink:href="#m449b27c067" x="57.6" y="53.568" style="stroke: #000000; stroke-width: 0.8"/>
      </g>
     </g>
     <g id="text_13">
      <!-- 1.0 -->
      <g transform="translate(34.696875 57.367219)scale(0.1 -0.1)">
       <use xlink:href="#DejaVuSans-31"/>
       <use xlink:href="#DejaVuSans-2e" x="63.623047"/>
       <use xlink:href="#DejaVuSans-30" x="95.410156"/>
      </g>
     </g>
    </g>
    <g id="text_14">
     <!-- f2 -->
     <g transform="translate(28.617188 179.469406)rotate(-90)scale(0.1 -0.1)">
      <use xlink:href="#DejaVuSans-66"/>
      <use xlink:href="#DejaVuSans-32" x="35.205078"/>
     </g>
    </g>
   </g>
   <g id="patch_3">
    <path d="M 57.6 307.584 
L 57.6 41.472 
" style="fill: none; stroke: #000000; stroke-width: 0.8; stroke-linejoin: miter; stroke-linecap: square"/>
   </g>
   <g id="patch_4">
    <path d="M 414.72 307.584 
L 414.72 41.472 
" style="fill: none; stroke: #000000; stroke-width: 0.8; stroke-linejoin: miter; stroke-linecap: square"/>
   </g>
   <g id="patch_5">
    <path d="M 57.6 307.584 
L 414.72 307.584 
" style="fill: none; stroke: #000000; stroke-width: 0.8; stroke-linejoin: miter; stroke-linecap: square"/>
   </g>
   <g id="patch_6">
    <path d="M 57.6 41.472 
L 414.72 41.472 
" style="fill: none; stroke: #000000; stroke-width: 0.8; stroke-linejoin: miter; stroke-linecap: square"/>
   </g>
   <g id="text_15">
    <!-- convex -->
    <g transform="translate(214.697812 35.472)scale(0.12 -0.12)">
     <defs>
      <path id="DejaVuSans-63" d="M 3122 3366 
L 3122 2828 
Q 2878 2963 2633 3030 
Q 2388 3097 2138 3097 
Q 1578 3097 1268 2742 
Q 959 2388 959 1747 
Q 959 1106 1268 751 
Q 1578 397 2138 397 
Q 2388 397 2633 464 
Q 2878 531 3122 666 
L 3122 134 
Q 2881 22 2623 -34 
Q 2366 -91 2075 -91 
Q 1284 -91 818 406 
Q 353 903 353 1747 
Q 353 2603 823 3093 
Q 1294 3584 2113 3584 
Q 2378 3584 2631 3529 
Q 2884 3475 3122 3366 
z
" transform="scale(0.015625)"/>
      <path id="DejaVuSans-6f" d="M 1959 3097 
Q 1497 3097 1228 2736 
Q 959 2375 959 1747 
Q 959 1119 1226 758 
Q 1494 397 1959 397 
Q 2419 397 2687 759 
Q 2956 1122 2956 1747 
Q 2956 2369 2687 2733 
Q 2419 3097 1959 3097 
z
M 1959 3584 
Q 2709 3584 3137 3096 
Q 3566 2609 3566 1747 
Q 3566 888 3137 398 
Q 2709 -91 1959 -91 
Q 1206 -91 779 398 
Q 353 888 353 1747 
Q 353 2609 779 3096 
Q 1206 3584 1959 3584 
z
" transform="scale(0.015625)"/>
      <path id="DejaVuSans-6e" d="M 3513 2113 
L 3513 0 
L 2938 0 
L 2938 2094 
Q 2938 2591 2744 2837 
Q 2550 3084 2163 3084 
Q 1697 3084 1428 2787 
Q 1159 2491 1159 1978 
L 1159 0 
L 581 0 
L 581 3500 
L 1159 3500 
L 1159 2956 
Q 1366 3272 1645 3428 
Q 1925 3584 2291 3584 
Q 2894 3584 3203 3211 
Q 3513 2838 3513 2113 
z
" transform="scale(0.015625)"/>
      <path id="DejaVuSans-76" d="M 191 3500 
L 800 3500 
L 1894 563 
L 2988 3500 
L 3597 3500 
L 2284 0 
L 1503 0 
L 191 3500 
z
" transform="scale(0.015625)"/>
      <path id="DejaVuSans-65" d="M 3597 1894 
L 3597 1613 
L 953 1613 
Q 991 1019 1311 708 
Q 1631 397 2203 397 
Q 2534 397 2845 478 
Q 3156 559 3463 722 
L 3463 178 
Q 3153 47 2828 -22 
Q 2503 -91 2169 -91 
Q 1331 -91 842 396 
Q 353 884 353 1716 
Q 353 2575 817 3079 
Q 1281 3584 2069 3584 
Q 2775 3584 3186 3129 
Q 3597 2675 3597 1894 
z
M 3022 2063 
Q 3016 2534 2758 2815 
Q 2500 3097 2075 3097 
Q 1594 3097 1305 2825 
Q 1016 2553 972 2059 
L 3022 2063 
z
" transform="scale(0.015625)"/>
      <path id="DejaVuSans-78" d="M 3513 3500 
L 2247 1797 
L 3578 0 
L 2900 0 
L 1881 1375 
L 863 0 
L 184 0 
L 1544 1831 
L 300 3500 
L 978 3500 
L 1906 2253 
L 2834 3500 
L 3513 3500 
z
" transform="scale(0.015625)"/>
     </defs>
     <use xlink:href="#DejaVuSans-63"/>
     <use xlink:href="#DejaVuSans-6f" x="54.980469"/>
     <use xlink:href="#DejaVuSans-6e" x="116.162109"/>
     <use xlink:href="#DejaVuSans-76" x="179.541016"/>
     <use xlink:href="#DejaVuSans-65" x="238.720703"/>
     <use xlink:href="#DejaVuSans-78" x="298.494141"/>
    </g>
   </g>
  </g>
 </g>
 <defs>
  <clipPath id="p1381fe9dc7">
   <rect x="57.6" y="41.472" width="357.12" height="266.112"/>
  </clipPath>
 </defs>
</svg>
